<svg width="430" height="83" viewBox="0 0 430 83" fill="none" xmlns="http://www.w3.org/2000/svg">
<g clip-path="url(#clip0_13_33)" transform="rotate(180, 215, 41.5)">
<path d="M3.57106e-06 42.1536C13.4941 45.706 61.7156 68.4873 123.7 54.8626C270.524 22.5883 354.695 61.9673 354.695 61.9673C398.367 82.5036 437.813 83.2317 449 82.9669L449 81.1356C422.576 85.1678 377.621 69.1878 350.655 54.289C313.845 33.9513 207.564 13.7129 139.869 42.8873C75.1165 70.793 13.0721 37.4926 4.57072e-06 30.7189L3.57106e-06 42.1536Z" fill="#B1A7B2"/>
<path d="M4.46194e-06 31.2815C13.0666 38.0552 75.1165 71.3556 139.869 43.4499C207.558 14.27 313.845 34.5084 350.661 54.8461C377.621 69.7449 422.576 85.7194 449 81.6872L449 64.5212C443.99 57.7806 424.725 35.6558 386.155 33.3887C340.576 30.7023 328.309 39.8645 299.825 28.4739C271.34 17.0722 270.683 0.529564 212.398 0.761233C154.108 0.987386 79.1779 33.6203 41.2716 29.1468C24.6698 27.1886 10.5892 20.9886 0.00549908 14.6341L0.00549763 31.2815L4.46194e-06 31.2815Z" fill="#936B9C"/>
<path d="M41.2661 29.7039C79.1724 34.1719 154.108 1.54444 212.393 1.31829C270.683 1.09214 271.335 17.6292 299.819 29.0309C328.304 40.4326 340.576 31.2649 386.15 33.9457C424.719 36.2128 443.985 58.3267 448.995 65.0783L448.995 -0.00553894L5.68981e-06 -0.00557819L4.36175e-06 15.1856C10.5837 21.5401 24.6588 27.7401 41.2661 29.7039Z" fill="white"/>
<path d="M6.66536e-06 3.26545C4.53275 6.50337 9.4163 9.65304 14.4971 12.6372C20.2631 16.013 26.325 19.1737 32.5021 22.0366C46.6539 28.5841 61.4032 33.5541 76.3333 36.7975C80.7181 37.7463 85.2234 38.4303 89.7288 38.8054C94.0423 39.1749 98.5093 39.2797 102.993 39.1253C111.324 38.8329 119.956 37.6691 129.405 35.5619C147.054 31.6235 164.906 24.9546 183.809 17.894L183.892 17.8664C188.951 15.9744 194.481 14.1928 200.323 12.56C206.917 10.7232 213.757 9.12351 220.652 7.81621C235.615 4.97545 250.408 3.54127 264.697 3.54127C266.155 3.54127 267.613 3.55783 269.06 3.58541C287.865 3.97154 305.404 6.9171 321.195 12.3394C339.562 18.6387 355.698 28.369 369.153 41.238C376.805 48.5578 385.048 54.9839 393.642 60.34C400.954 64.9073 408.638 68.763 416.465 71.8024C422.801 74.246 429.269 76.1766 435.676 77.5336C440.269 78.5154 444.752 79.1718 448.995 79.5083L448.995 79.045C435.714 77.9859 402.105 72.1223 369.455 40.9015C365.909 37.5146 362.138 34.3043 358.246 31.3642C354.481 28.5179 350.496 25.8537 346.407 23.4266C338.646 18.8318 330.206 14.9485 321.332 11.9036C305.503 6.4703 287.915 3.51922 269.066 3.12206C260.883 2.95658 252.398 3.26547 243.848 4.0653C236.158 4.78238 228.32 5.8856 220.565 7.36389C213.653 8.67671 206.802 10.2764 200.197 12.1187C194.344 13.7515 188.797 15.5387 183.727 17.4362L183.645 17.4638C164.758 24.5133 146.917 31.1767 129.301 35.1096C109.597 39.5114 92.7926 39.8975 76.4265 36.3397C39.6328 28.3359 12.8254 11.8981 6.71455e-06 2.70282L6.66536e-06 3.26545Z" fill="none"/>
</g>
<defs>
<clipPath id="clip0_13_33">
<rect width="449" height="83" fill="none" transform="translate(449 83) rotate(-180)"/>
</clipPath>
</defs>
</svg>
